<svg width="235" height="59" viewBox="0 0 235 59" fill="none" xmlns="http://www.w3.org/2000/svg">
<rect width="235" height="59" fill="#F5F5F5"/>
<g clip-path="url(#clip0_0_1)">
<path d="M235 0H0V59H235V0Z" fill="#F5F5F5"/>
<path d="M78.4299 0H0V59H78.4299V0Z" fill="#000091"/>
<path d="M157.109 0H78.6793V59H157.109V0Z" fill="#F5F5F5"/>
<path d="M157.109 0H78.6793V59H157.109V0Z" fill="black" fill-opacity="0.2"/>
<path d="M235 0H156.57V59H235V0Z" fill="#E1011D"/>
<path d="M47.5044 34.9858H45.5758L51.154 17.8221H53.053L58.6313 34.9858H56.7026L52.1629 20.5375H52.0442L47.5044 34.9858ZM48.2165 28.2812H55.9905V30.125H48.2165V28.2812ZM67.9411 29.7227V22.1131H69.6912V34.9858H67.9411V32.8068H67.8223C67.5553 33.4605 67.1395 34.0164 66.5762 34.4746C66.0122 34.9271 65.3 35.1534 64.4396 35.1534C63.7274 35.1534 63.0944 34.9774 62.5406 34.6254C61.9867 34.2679 61.5515 33.7315 61.235 33.0163C60.9185 32.2956 60.7602 31.3877 60.7602 30.2926V22.1131H62.5109V30.1585C62.5109 31.0971 62.7433 31.8458 63.2082 32.4046C63.678 32.9632 64.2764 33.2426 65.0033 33.2426C65.4384 33.2426 65.881 33.1169 66.3314 32.8655C66.7864 32.614 67.1669 32.2285 67.4737 31.709C67.7851 31.1893 67.9411 30.5273 67.9411 29.7227Z" fill="#F5F5F5"/>
<path d="M73.1353 34.9858V17.8221H78.2687C79.4555 17.8221 80.4294 18.0512 81.1912 18.5093C81.953 18.9619 82.5163 19.5849 82.8825 20.3782C83.2481 21.1716 83.4315 22.074 83.4315 23.0852C83.4315 24.0965 83.2481 24.9932 82.8825 25.7754C82.5163 26.5576 81.9549 27.1722 81.1984 27.6192C80.4418 28.0606 79.475 28.2812 78.2981 28.2812H74.1438V26.404H78.2387C79.0501 26.404 79.7029 26.2699 80.197 26.0017C80.6964 25.7335 81.0574 25.3536 81.28 24.8619C81.5078 24.3646 81.6214 23.7724 81.6214 23.0852C81.6214 22.398 81.5078 21.7974 81.28 21.2834C81.0528 20.7693 80.6892 20.3727 80.1898 20.0933C79.6905 19.8084 79.0298 19.6659 78.2093 19.6659H74.9748V34.9858H73.1353ZM80.2858 27.2756L84.0249 34.9858H81.8884L78.2093 27.2756H80.2858ZM90.9143 35.254C89.8163 35.254 88.8692 34.9802 88.0728 34.4327C87.2816 33.8796 86.6713 33.1085 86.2411 32.1196C85.8155 31.1251 85.6027 29.9685 85.6027 28.65C85.6027 27.3315 85.8155 26.1693 86.2411 25.1637C86.6713 24.1524 87.2692 23.3646 88.0362 22.8003C88.8072 22.2304 89.7073 21.9454 90.7361 21.9454C91.3295 21.9454 91.9157 22.0572 92.494 22.2807C93.0731 22.5042 93.5992 22.8673 94.0744 23.3702C94.549 23.8674 94.927 24.5267 95.209 25.348C95.491 26.1693 95.6319 27.1806 95.6319 28.3818V29.2199H86.8488V27.5102H93.8518C93.8518 26.7839 93.7232 26.1358 93.466 25.5659C93.2134 24.996 92.8524 24.5463 92.3831 24.2166C91.9183 23.887 91.3693 23.7221 90.7361 23.7221C90.0389 23.7221 89.4358 23.9177 88.926 24.3088C88.422 24.6943 88.0336 25.1971 87.7614 25.8173C87.4898 26.4375 87.3534 27.1024 87.3534 27.8119V28.9517C87.3534 29.9238 87.5016 30.7479 87.7986 31.424C88.1002 32.0945 88.518 32.6057 89.0519 32.9577C89.5866 33.3041 90.2067 33.4773 90.9143 33.4773C91.3739 33.4773 91.7897 33.4046 92.1605 33.2593C92.5365 33.1085 92.8603 32.8851 93.1318 32.589C93.404 32.2872 93.6142 31.9129 93.7624 31.4659L95.4537 32.0023C95.2762 32.6504 94.9766 33.2203 94.5562 33.7119C94.1358 34.198 93.6168 34.5779 92.9986 34.8517C92.3805 35.1199 91.6859 35.254 90.9143 35.254ZM107.265 22.1131L103.051 34.9858H101.271L97.0583 22.1131H98.9572L102.102 32.371H102.221L105.366 22.1131H107.265ZM113.797 35.254C112.768 35.254 111.865 34.9774 111.089 34.4243C110.317 33.8712 109.714 33.0973 109.279 32.1029C108.849 31.1083 108.634 29.9462 108.634 28.6165C108.634 27.2756 108.849 26.1051 109.279 25.1049C109.714 24.1049 110.317 23.3282 111.089 22.7751C111.865 22.222 112.768 21.9454 113.797 21.9454C114.825 21.9454 115.725 22.222 116.497 22.7751C117.273 23.3282 117.877 24.1049 118.307 25.1049C118.742 26.1051 118.96 27.2756 118.96 28.6165C118.96 29.9462 118.742 31.1083 118.307 32.1029C117.877 33.0973 117.273 33.8712 116.497 34.4243C115.725 34.9774 114.825 35.254 113.797 35.254ZM113.797 33.4773C114.578 33.4773 115.221 33.251 115.725 32.7984C116.23 32.3459 116.603 31.7509 116.845 31.0134C117.087 30.2759 117.209 29.4769 117.209 28.6165C117.209 27.756 117.087 26.9543 116.845 26.2112C116.603 25.4682 116.23 24.8675 115.725 24.4093C115.221 23.9512 114.578 23.7221 113.797 23.7221C113.015 23.7221 112.372 23.9512 111.868 24.4093C111.363 24.8675 110.99 25.4682 110.748 26.2112C110.505 26.9543 110.384 27.756 110.384 28.6165C110.384 29.4769 110.505 30.2759 110.748 31.0134C110.99 31.7509 111.363 32.3459 111.868 32.7984C112.372 33.251 113.015 33.4773 113.797 33.4773ZM121.632 34.9858V22.1131H123.382V34.9858H121.632ZM122.522 19.9676C122.18 19.9676 121.887 19.8363 121.639 19.5737C121.397 19.3111 121.276 18.9954 121.276 18.6267C121.276 18.2579 121.397 17.9423 121.639 17.6797C121.887 17.4171 122.18 17.2858 122.522 17.2858C122.863 17.2858 123.155 17.4171 123.397 17.6797C123.645 17.9423 123.768 18.2579 123.768 18.6267C123.768 18.9954 123.645 19.3111 123.397 19.5737C123.155 19.8363 122.863 19.9676 122.522 19.9676ZM126.589 34.9858V22.1131H128.28V24.0574H128.399C128.606 23.4204 128.982 22.9037 129.526 22.507C130.071 22.1103 130.684 21.9119 131.366 21.9119C131.494 21.9119 131.655 21.9147 131.848 21.9203C132.041 21.9259 132.187 21.9343 132.286 21.9454V23.9568C132.227 23.9401 132.09 23.9149 131.878 23.8814C131.67 23.8423 131.45 23.8227 131.217 23.8227C130.664 23.8227 130.169 23.954 129.734 24.2166C129.304 24.4737 128.963 24.8312 128.71 25.2893C128.463 25.7419 128.339 26.2587 128.339 26.8398V34.9858H126.589Z" fill="#E1011D"/>
<path d="M146.823 23.1858H144.983C144.875 22.5879 144.684 22.0628 144.412 21.6102C144.145 21.1577 143.819 20.7777 143.433 20.4704C143.052 20.1576 142.629 19.9229 142.165 19.7665C141.7 19.6101 141.215 19.5318 140.711 19.5318C139.791 19.5318 138.957 19.7944 138.211 20.3196C137.469 20.8448 136.878 21.6186 136.438 22.641C136.003 23.6635 135.785 24.9178 135.785 26.404C135.785 27.8901 136.003 29.1445 136.438 30.1669C136.878 31.1893 137.469 31.9632 138.211 32.4884C138.957 33.0135 139.791 33.2762 140.711 33.2762C141.215 33.2762 141.7 33.1979 142.165 33.0415C142.629 32.8851 143.052 32.6532 143.433 32.3459C143.819 32.033 144.145 31.6503 144.412 31.1977C144.684 30.7396 144.875 30.2144 144.983 29.6221H146.823C146.684 30.4993 146.432 31.2843 146.066 31.9771C145.701 32.6699 145.246 33.2593 144.701 33.7454C144.157 34.226 143.547 34.5919 142.87 34.8433C142.197 35.0948 141.477 35.2204 140.711 35.2204C139.415 35.2204 138.263 34.8629 137.254 34.1477C136.245 33.4326 135.451 32.4157 134.873 31.0971C134.294 29.7786 134.005 28.2142 134.005 26.404C134.005 24.5937 134.294 23.0293 134.873 21.7108C135.451 20.3923 136.245 19.3754 137.254 18.6602C138.263 17.9451 139.415 17.5875 140.711 17.5875C141.477 17.5875 142.197 17.7132 142.87 17.9646C143.547 18.216 144.157 18.5848 144.701 19.0709C145.246 19.5514 145.701 20.138 146.066 20.8308C146.432 21.518 146.684 22.303 146.823 23.1858ZM154.187 35.254C153.159 35.254 152.256 34.9774 151.48 34.4243C150.708 33.8712 150.105 33.0973 149.67 32.1029C149.239 31.1083 149.025 29.9462 149.025 28.6165C149.025 27.2756 149.239 26.1051 149.67 25.1049C150.105 24.1049 150.708 23.3282 151.48 22.7751C152.256 22.222 153.159 21.9454 154.187 21.9454C155.216 21.9454 156.116 22.222 156.887 22.7751C157.663 23.3282 158.267 24.1049 158.697 25.1049C159.132 26.1051 159.35 27.2756 159.35 28.6165C159.35 29.9462 159.132 31.1083 158.697 32.1029C158.267 33.0973 157.663 33.8712 156.887 34.4243C156.116 34.9774 155.216 35.254 154.187 35.254ZM154.187 33.4773C154.969 33.4773 155.612 33.251 156.116 32.7984C156.62 32.3459 156.994 31.7509 157.236 31.0134C157.478 30.2759 157.599 29.4769 157.599 28.6165C157.599 27.756 157.478 26.9543 157.236 26.2112C156.994 25.4682 156.62 24.8675 156.116 24.4093C155.612 23.9512 154.969 23.7221 154.187 23.7221C153.406 23.7221 152.763 23.9512 152.258 24.4093C151.754 24.8675 151.38 25.4682 151.138 26.2112C150.896 26.9543 150.775 27.756 150.775 28.6165C150.775 29.4769 150.896 30.2759 151.138 31.0134C151.38 31.7509 151.754 32.3459 152.258 32.7984C152.763 33.251 153.406 33.4773 154.187 33.4773ZM170.931 22.1131L166.718 34.9858H164.937L160.724 22.1131H162.623L165.768 32.371H165.887L169.032 22.1131H170.931ZM173.242 34.9858V22.1131H174.993V34.9858H173.242ZM174.132 19.9676C173.791 19.9676 173.497 19.8363 173.249 19.5737C173.007 19.3111 172.886 18.9954 172.886 18.6267C172.886 18.2579 173.007 17.9423 173.249 17.6797C173.497 17.4171 173.791 17.2858 174.132 17.2858C174.473 17.2858 174.765 17.4171 175.008 17.6797C175.255 17.9423 175.379 18.2579 175.379 18.6267C175.379 18.9954 175.255 19.3111 175.008 19.5737C174.765 19.8363 174.473 19.9676 174.132 19.9676ZM182.502 35.254C181.552 35.254 180.714 34.983 179.987 34.441C179.26 33.8935 178.691 33.1225 178.281 32.128C177.87 31.1279 177.665 29.9462 177.665 28.5829C177.665 27.2309 177.87 26.0576 178.281 25.0631C178.691 24.0685 179.263 23.3004 179.994 22.7584C180.726 22.2165 181.571 21.9454 182.531 21.9454C183.273 21.9454 183.859 22.0851 184.289 22.3645C184.724 22.6382 185.056 22.9512 185.283 23.3031C185.516 23.6495 185.696 23.9345 185.825 24.1579H185.973V17.8221H187.724V34.9858H186.033V33.0079H185.825C185.696 33.2426 185.513 33.5387 185.276 33.8963C185.038 34.2483 184.7 34.564 184.26 34.8433C183.82 35.1171 183.233 35.254 182.502 35.254ZM182.739 33.4773C183.441 33.4773 184.034 33.2705 184.519 32.8571C185.004 32.4381 185.372 31.8598 185.625 31.1223C185.877 30.3792 186.003 29.5216 186.003 28.5494C186.003 27.5885 185.879 26.7476 185.632 26.0268C185.384 25.3005 185.019 24.7362 184.534 24.334C184.049 23.9261 183.451 23.7221 182.739 23.7221C181.997 23.7221 181.379 23.9373 180.884 24.3674C180.394 24.7921 180.026 25.3704 179.779 26.1023C179.537 26.8286 179.415 27.6443 179.415 28.5494C179.415 29.4657 179.539 30.2982 179.787 31.0468C180.039 31.7899 180.41 32.3822 180.899 32.8236C181.394 33.2593 182.007 33.4773 182.739 33.4773Z" fill="#000088"/>
</g>
<defs>
<clipPath id="clip0_0_1">
<rect width="235" height="59" fill="white"/>
</clipPath>
</defs>
</svg>
